<?xml version="1.0" encoding="UTF-8" standalone="no"?>
<!-- Created with Inkscape (http://www.inkscape.org/) -->

<svg
   xmlns:dc="http://purl.org/dc/elements/1.1/"
   xmlns:cc="http://creativecommons.org/ns#"
   xmlns:rdf="http://www.w3.org/1999/02/22-rdf-syntax-ns#"
   xmlns:svg="http://www.w3.org/2000/svg"
   xmlns="http://www.w3.org/2000/svg"
   xmlns:sodipodi="http://sodipodi.sourceforge.net/DTD/sodipodi-0.dtd"
   xmlns:inkscape="http://www.inkscape.org/namespaces/inkscape"
   width="64"
   height="64"
   viewBox="0 0 16.933333 16.933333"
   version="1.1"
   id="svg8"
   inkscape:version="0.92.3 (2405546, 2018-03-11)"
   sodipodi:docname="35-Online class.svg">
  <defs
     id="defs2" />
  <sodipodi:namedview
     id="base"
     pagecolor="#ffffff"
     bordercolor="#666666"
     borderopacity="1.0"
     inkscape:pageopacity="0.0"
     inkscape:pageshadow="2"
     inkscape:zoom="5.656854"
     inkscape:cx="45.861132"
     inkscape:cy="15.972461"
     inkscape:document-units="px"
     inkscape:current-layer="layer2"
     showgrid="false"
     inkscape:snap-smooth-nodes="true"
     inkscape:snap-page="true"
     inkscape:snap-midpoints="false"
     inkscape:snap-intersection-paths="true"
     inkscape:object-paths="true"
     inkscape:object-nodes="true"
     units="px"
     inkscape:snap-bbox="true"
     inkscape:bbox-paths="false"
     inkscape:snap-bbox-midpoints="false"
     inkscape:window-width="1920"
     inkscape:window-height="1040"
     inkscape:window-x="0"
     inkscape:window-y="0"
     inkscape:window-maximized="1"
     inkscape:snap-grids="true"
     inkscape:snap-to-guides="true"
     inkscape:snap-bbox-edge-midpoints="false"
     inkscape:snap-nodes="true"
     inkscape:snap-others="false"
     inkscape:bbox-nodes="true"
     showguides="true"
     inkscape:guide-bbox="true"
     inkscape:measure-start="0,0"
     inkscape:measure-end="0,0"
     inkscape:snap-global="true">
    <inkscape:grid
       type="xygrid"
       id="grid815"
       enabled="true" />
  </sodipodi:namedview>
  <metadata
     id="metadata5">
    <rdf:RDF>
      <cc:Work
         rdf:about="">
        <dc:format>image/svg+xml</dc:format>
        <dc:type
           rdf:resource="http://purl.org/dc/dcmitype/StillImage" />
        <dc:title />
      </cc:Work>
    </rdf:RDF>
  </metadata>
  <g
     inkscape:groupmode="layer"
     id="layer2"
     inkscape:label="35-Online class">
    <path
       style="opacity:1;fill:#549ad4;fill-opacity:1;stroke:none;stroke-width:0.52916664;stroke-linecap:square;stroke-linejoin:round;stroke-miterlimit:4;stroke-dasharray:none;stroke-dashoffset:0;stroke-opacity:1"
       d="m 1.8520824,4.2333307 h 4.7624988 c 0.7328959,0 1.3229168,0.5900209 1.3229168,1.3229168 v 9.5249995 c 0,0.732895 -0.5900209,1.322916 -1.3229168,1.322916 H 1.8520824 c -0.7328959,0 -1.32291677,-0.590021 -1.32291677,-1.322916 V 5.5562475 c 0,-0.7328959 0.59002087,-1.3229168 1.32291677,-1.3229168 z"
       id="rect8562"
       inkscape:connector-curvature="0"
       sodipodi:nodetypes="ccccccccc" />
    <path
       inkscape:connector-curvature="0"
       style="opacity:1;fill:#3588cb;fill-opacity:1;stroke:none;stroke-width:0.52916664;stroke-linecap:square;stroke-linejoin:round;stroke-miterlimit:4;stroke-dasharray:none;stroke-dashoffset:0;stroke-opacity:1"
       d="m 6.085417,4.2333267 c 0.73289,0 1.32291,0.59002 1.32291,1.3229201 v 9.5249992 c 0,0.7329 -0.59002,1.32292 -1.32291,1.32292 h 0.52916 c 0.7329,0 1.32292,-0.59002 1.32292,-1.32292 V 5.5562468 c 0,-0.7329001 -0.59002,-1.3229201 -1.32292,-1.3229201 z"
       id="rect8662"
       sodipodi:nodetypes="ccccccccc" />
    <path
       inkscape:connector-curvature="0"
       style="opacity:1;fill:#e4eff8;fill-opacity:1;stroke:none;stroke-width:0.52916664;stroke-linecap:butt;stroke-linejoin:round;stroke-miterlimit:4;stroke-dasharray:none;stroke-dashoffset:0;stroke-opacity:1"
       d="m 5.977407,12.435556 c 0.45229,-0.6993 0.7851,-1.58869 0.63717,-2.381249 h -1.16633 c -0.96613,0 -1.74408,-0.7779499 -1.74408,-1.7440799 V 5.2918066 h -1.05834 l -0.24546,-0.26459 -0.54829,-1.399e-4 c -0.29315,0 -0.52916,0.2360099 -0.52916,0.5291701 v 9.5249992 c 0,0.29316 0.23601,0.52917 0.52916,0.52917 h 4.7625 c 0.29316,0 0.52917,-0.23601 0.52917,-0.52917 v -2.93205 c -0.36701,0.16558 -0.76164,0.2658 -1.16634,0.28636 z"
       id="path8518"
       sodipodi:nodetypes="ccccccccccccccc" />
    <path
       style="opacity:1;fill:#c4dcf0;fill-opacity:1;stroke:none;stroke-width:0.52916664;stroke-linecap:butt;stroke-linejoin:round;stroke-miterlimit:4;stroke-dasharray:none;stroke-dashoffset:0;stroke-opacity:1"
       d="m 1.852077,5.0270767 c -0.29315,0 -0.52916,0.2360099 -0.52916,0.5291701 v 9.5249992 c 0,0.29316 0.23601,0.52917 0.52916,0.52917 V 6.0854166 c 0,-0.2931599 0.23601,-0.5291698 0.52917,-0.5291698 h 0.54829 l 0.24546,0.2645798 h 0.52917 v -0.52916 H 2.645827 L 2.400367,5.0270767 Z"
       id="path8569"
       inkscape:connector-curvature="0"
       sodipodi:nodetypes="ccccccccccccc" />
    <path
       inkscape:connector-curvature="0"
       style="opacity:1;fill:#a4c9e8;fill-opacity:1;stroke:none;stroke-width:0.52916664;stroke-linecap:butt;stroke-linejoin:round;stroke-miterlimit:4;stroke-dasharray:none;stroke-dashoffset:0;stroke-opacity:1"
       d="m 9.083607,10.318226 h 5.312859 c 1.10812,0 2.00763,-0.8994894 2.00763,-2.0076295 V 2.5373067 c -9e-6,-1.10812 -0.899519,-2.00814 -2.007639,-2.00814 h -8.94925 c -1.10812,0 -2.00763,0.90002 -2.00763,2.00814 v 5.7732898 c 0,1.1081401 0.89951,2.0076295 2.00763,2.0076295 h 0.93431 c 0.0426,0.64363 -0.23903,1.375 -0.6258,1.97301 -0.1171,0.18074 0.0195,0.41774 0.23461,0.40773 0.54562,-0.0277 1.07693,-0.1824 1.55181,-0.45476 0.75662,-0.43625 1.27958,-1.16432 1.54147,-1.92598 z"
       id="path8572"
       sodipodi:nodetypes="cccccccccccccc" />
    <path
       style="opacity:1;fill:#e4eff8;fill-opacity:1;stroke:none;stroke-width:0.52916664;stroke-linecap:butt;stroke-linejoin:round;stroke-miterlimit:4;stroke-dasharray:none;stroke-dashoffset:0;stroke-opacity:1"
       d="M 9.260417,7.6729166 V 3.1749967 c 0,-0.29316 -0.23601,-0.52916 -0.52917,-0.52916 h -5.29167 v 5.0270698 z"
       id="path8526"
       inkscape:connector-curvature="0"
       sodipodi:nodetypes="cccccc" />
    <path
       inkscape:connector-curvature="0"
       style="opacity:1;fill:#c4dcf0;fill-opacity:1;stroke:none;stroke-width:0.52916664;stroke-linecap:butt;stroke-linejoin:round;stroke-miterlimit:4;stroke-dasharray:none;stroke-dashoffset:0;stroke-opacity:1"
       d="m 3.439577,2.6458267 v 5.0270899 h 0.52917 V 3.1749967 h 5.29167 c 0,-0.29316 -0.23601,-0.52917 -0.52917,-0.52917 z"
       id="path8584"
       sodipodi:nodetypes="ccccccc" />
    <path
       inkscape:connector-curvature="0"
       style="color:#000000;font-style:normal;font-variant:normal;font-weight:normal;font-stretch:normal;font-size:medium;line-height:normal;font-family:sans-serif;font-variant-ligatures:normal;font-variant-position:normal;font-variant-caps:normal;font-variant-numeric:normal;font-variant-alternates:normal;font-feature-settings:normal;text-indent:0;text-align:start;text-decoration:none;text-decoration-line:none;text-decoration-style:solid;text-decoration-color:#000000;letter-spacing:normal;word-spacing:normal;text-transform:none;writing-mode:lr-tb;direction:ltr;text-orientation:mixed;dominant-baseline:auto;baseline-shift:baseline;text-anchor:start;white-space:normal;shape-padding:0;clip-rule:nonzero;display:inline;overflow:visible;visibility:visible;opacity:1;isolation:auto;mix-blend-mode:normal;color-interpolation:sRGB;color-interpolation-filters:linearRGB;solid-color:#000000;solid-opacity:1;vector-effect:none;fill:#c4dcf0;fill-opacity:1;fill-rule:nonzero;stroke:none;stroke-width:0.52916664;stroke-linecap:round;stroke-linejoin:miter;stroke-miterlimit:4;stroke-dasharray:none;stroke-dashoffset:0;stroke-opacity:1;color-rendering:auto;image-rendering:auto;shape-rendering:auto;text-rendering:auto;enable-background:accumulate"
       d="M 8.614947,4.4958558 C 8.3784482,4.5146725 8.2843032,4.8112061 8.466637,4.9629959 l 0.79375,0.6810999 V 4.9480168 L 8.810277,4.5625067 C 8.763793,4.5209607 8.7041334,4.4971617 8.641832,4.4953167 8.632882,4.4950468 8.623899,4.4952235 8.614947,4.4958558 Z"
       id="path8647"
       sodipodi:nodetypes="ccccccc" />
    <path
       style="color:#000000;font-style:normal;font-variant:normal;font-weight:normal;font-stretch:normal;font-size:medium;line-height:normal;font-family:sans-serif;font-variant-ligatures:normal;font-variant-position:normal;font-variant-caps:normal;font-variant-numeric:normal;font-variant-alternates:normal;font-feature-settings:normal;text-indent:0;text-align:start;text-decoration:none;text-decoration-line:none;text-decoration-style:solid;text-decoration-color:#000000;letter-spacing:normal;word-spacing:normal;text-transform:none;writing-mode:lr-tb;direction:ltr;text-orientation:mixed;dominant-baseline:auto;baseline-shift:baseline;text-anchor:start;white-space:normal;shape-padding:0;clip-rule:nonzero;display:inline;overflow:visible;visibility:visible;opacity:1;isolation:auto;mix-blend-mode:normal;color-interpolation:sRGB;color-interpolation-filters:linearRGB;solid-color:#000000;solid-opacity:1;vector-effect:none;fill:#549ad4;fill-opacity:1;fill-rule:nonzero;stroke:none;stroke-width:0.52916664;stroke-linecap:round;stroke-linejoin:miter;stroke-miterlimit:4;stroke-dasharray:none;stroke-dashoffset:0;stroke-opacity:1;color-rendering:auto;image-rendering:auto;shape-rendering:auto;text-rendering:auto;enable-background:accumulate"
       d="m 8.294917,4.9628866 1.85156,1.58789 c 0.268632,0.2345127 0.61732,-0.1736075 0.34375,-0.40234 l -1.85156,-1.58594 c -0.05344,-0.047644 -0.1239047,-0.0716 -0.19531,-0.066405 -0.236117,0.01901 -0.3302069,0.3148951 -0.14844,0.466795 z"
       id="path8530"
       inkscape:connector-curvature="0"
       sodipodi:nodetypes="cccccc" />
    <path
       style="color:#000000;font-style:normal;font-variant:normal;font-weight:normal;font-stretch:normal;font-size:medium;line-height:normal;font-family:sans-serif;font-variant-ligatures:normal;font-variant-position:normal;font-variant-caps:normal;font-variant-numeric:normal;font-variant-alternates:normal;font-feature-settings:normal;text-indent:0;text-align:start;text-decoration:none;text-decoration-line:none;text-decoration-style:solid;text-decoration-color:#000000;letter-spacing:normal;word-spacing:normal;text-transform:none;writing-mode:lr-tb;direction:ltr;text-orientation:mixed;dominant-baseline:auto;baseline-shift:baseline;text-anchor:start;white-space:normal;shape-padding:0;clip-rule:nonzero;display:inline;overflow:visible;visibility:visible;opacity:1;isolation:auto;mix-blend-mode:normal;color-interpolation:sRGB;color-interpolation-filters:linearRGB;solid-color:#000000;solid-opacity:1;vector-effect:none;fill:#549ad4;fill-opacity:1;fill-rule:nonzero;stroke:none;stroke-width:0.52916664;stroke-linecap:round;stroke-linejoin:round;stroke-miterlimit:4;stroke-dasharray:none;stroke-dashoffset:0;stroke-opacity:1;color-rendering:auto;image-rendering:auto;shape-rendering:auto;text-rendering:auto;enable-background:accumulate"
       d="M 5.822137,3.7041666 C 5.7077109,3.7038664 5.6060555,3.7771507 5.570177,3.8858068 L 5.242057,4.8662767 4.999867,4.3799466 C 4.9551604,4.2903274 4.8636882,4.233628 4.763537,4.2334566 h -0.26562 c -0.3528665,0 -0.3528665,0.5293 0,0.5293 h 0.10156 l 0.45703,0.91211 c 0.1063206,0.2085405 0.4111481,0.1864774 0.48633,-0.0352 l 0.46875,-1.4062501 h 1.66211 c 0.3546766,0.00182 0.3546766,-0.5311114 0,-0.5292899 z"
       id="path8538"
       inkscape:connector-curvature="0"
       sodipodi:nodetypes="cccccccccccccc" />
    <path
       style="color:#000000;font-style:normal;font-variant:normal;font-weight:normal;font-stretch:normal;font-size:medium;line-height:normal;font-family:sans-serif;font-variant-ligatures:normal;font-variant-position:normal;font-variant-caps:normal;font-variant-numeric:normal;font-variant-alternates:normal;font-feature-settings:normal;text-indent:0;text-align:start;text-decoration:none;text-decoration-line:none;text-decoration-style:solid;text-decoration-color:#000000;letter-spacing:normal;word-spacing:normal;text-transform:none;writing-mode:lr-tb;direction:ltr;text-orientation:mixed;dominant-baseline:auto;baseline-shift:baseline;text-anchor:start;white-space:normal;shape-padding:0;clip-rule:nonzero;display:inline;overflow:visible;visibility:visible;opacity:1;isolation:auto;mix-blend-mode:normal;color-interpolation:sRGB;color-interpolation-filters:linearRGB;solid-color:#000000;solid-opacity:1;vector-effect:none;fill:#549ad4;fill-opacity:1;fill-rule:nonzero;stroke:none;stroke-width:1.99999988;stroke-linecap:round;stroke-linejoin:miter;stroke-miterlimit:4;stroke-dasharray:none;stroke-dashoffset:0;stroke-opacity:1;color-rendering:auto;image-rendering:auto;shape-rendering:auto;text-rendering:auto;enable-background:accumulate"
       d="m 24.994141,17.988281 c -0.03458,1.62e-4 -0.06913,0.0021 -0.103516,0.0059 -0.846862,0.08412 -1.208368,1.1202 -0.597656,1.71289 l 0.294922,0.294922 -0.294922,0.294922 c -0.978676,0.945223 0.478167,2.39404 1.417969,1.410156 l 0.291015,-0.291015 0.291016,0.291015 c 0.939802,0.983884 2.396645,-0.464933 1.417969,-1.410156 l -0.294922,-0.294922 0.294922,-0.294922 c 0.648555,-0.637515 0.178561,-1.739613 -0.730469,-1.71289 -0.259799,0.0077 -0.506378,0.11632 -0.6875,0.302734 l -0.291016,0.291016 -0.291015,-0.291016 c -0.187284,-0.195689 -0.445934,-0.307043 -0.716797,-0.308594 z"
       transform="scale(0.26458333)"
       id="path8540"
       inkscape:connector-curvature="0"
       sodipodi:nodetypes="cccccccccccccccc" />
    <path
       style="opacity:1;fill:#549ad4;fill-opacity:1;stroke:none;stroke-width:0.52916664;stroke-linecap:square;stroke-linejoin:round;stroke-miterlimit:4;stroke-dasharray:none;stroke-dashoffset:0;stroke-opacity:1"
       d="m 3.439577,7.4083266 h 6.08542 c 0.14658,0 0.26458,0.11801 0.26458,0.26459 v 0.52916 c 0,0.14658 -0.118,0.2645899 -0.26458,0.2645899 h -6.08542 z"
       id="rect8579"
       inkscape:connector-curvature="0"
       sodipodi:nodetypes="ccccccc" />
    <path
       transform="scale(-1,1)"
       style="opacity:1;fill:#e4eff8;fill-opacity:1;stroke:none;stroke-width:0.52916664;stroke-linecap:round;stroke-linejoin:round;stroke-miterlimit:4;stroke-dasharray:none;stroke-dashoffset:0;stroke-opacity:1"
       d="m -12.435418,4.4979186 c 0,0.5845015 -0.473832,1.0583336 -1.058334,1.0583335 -0.584501,-5e-7 -1.058333,-0.4738324 -1.058333,-1.0583335 0,-0.5845011 0.473832,-1.058333 1.058333,-1.0583335 0.584502,-10e-8 1.058334,0.473832 1.058334,1.0583335 z"
       id="ellipse8628"
       inkscape:connector-curvature="0"
       sodipodi:nodetypes="ccccc" />
    <path
       style="opacity:1;fill:#549ad4;fill-opacity:1;stroke:none;stroke-width:0.52916664;stroke-linecap:round;stroke-linejoin:round;stroke-miterlimit:4;stroke-dasharray:none;stroke-dashoffset:0;stroke-opacity:1"
       d="m 14.022917,8.9958366 h 0.52916 c 0.29316,0 0.52916,-0.2360099 0.52916,-0.52916 V 6.6145867 c 0,-0.2931599 -0.236,-0.5291601 -0.52916,-0.5291601 h -3.96875 c -0.29315,0 -0.52916,0.2360002 -0.52916,0.5291601 0,0.2931599 0.23601,0.5291698 0.52916,0.5291698 h 1.32292 v 3.1749895 h 2.11667"
       id="path8630"
       inkscape:connector-curvature="0"
       sodipodi:nodetypes="ccccccccccc" />
    <path
       sodipodi:nodetypes="ccccc"
       id="path8632"
       d="m 14.022917,7.4083266 c 0,-0.35286 0.52916,-0.35286 0.52916,0 v 1.58751 h -0.52916 z"
       style="color:#000000;font-style:normal;font-variant:normal;font-weight:normal;font-stretch:normal;font-size:medium;line-height:normal;font-family:sans-serif;font-variant-ligatures:normal;font-variant-position:normal;font-variant-caps:normal;font-variant-numeric:normal;font-variant-alternates:normal;font-feature-settings:normal;text-indent:0;text-align:start;text-decoration:none;text-decoration-line:none;text-decoration-style:solid;text-decoration-color:#000000;letter-spacing:normal;word-spacing:normal;text-transform:none;writing-mode:lr-tb;direction:ltr;text-orientation:mixed;dominant-baseline:auto;baseline-shift:baseline;text-anchor:start;white-space:normal;shape-padding:0;clip-rule:nonzero;display:inline;overflow:visible;visibility:visible;opacity:1;isolation:auto;mix-blend-mode:normal;color-interpolation:sRGB;color-interpolation-filters:linearRGB;solid-color:#000000;solid-opacity:1;vector-effect:none;fill:#3588cb;fill-opacity:1;fill-rule:nonzero;stroke:none;stroke-width:0.52916664;stroke-linecap:round;stroke-linejoin:miter;stroke-miterlimit:4;stroke-dasharray:none;stroke-dashoffset:0;stroke-opacity:1;color-rendering:auto;image-rendering:auto;shape-rendering:auto;text-rendering:auto;enable-background:accumulate"
       inkscape:connector-curvature="0" />
    <path
       id="path8634"
       d="m 13.758847,3.4741767 c -0.467114,0.1203553 -0.793745,0.5413405 -0.79427,1.0237099 4.03e-4,0.4820724 0.326535,0.9029595 0.79324,1.02371 -0.08621,0.022607 -0.174941,0.034232 -0.26407,0.0346 -0.584499,-2.2e-6 -1.058328,-0.4738315 -1.05833,-1.0583302 -3e-6,-0.5845024 0.473827,-1.0583377 1.05833,-1.0583148 0.08947,3.059e-4 0.178551,0.011932 0.2651,0.034625 z"
       style="opacity:1;fill:#c4dcf0;fill-opacity:1;stroke:none;stroke-width:0.52916664;stroke-linecap:round;stroke-linejoin:round;stroke-miterlimit:4;stroke-dasharray:none;stroke-dashoffset:0;stroke-opacity:1"
       inkscape:connector-curvature="0"
       sodipodi:nodetypes="ccccccc" />
    <path
       style="opacity:1;fill:#3588cb;fill-opacity:1;stroke:none;stroke-width:0.52916664;stroke-linecap:round;stroke-linejoin:round;stroke-miterlimit:4;stroke-dasharray:none;stroke-dashoffset:0;stroke-opacity:1"
       d="m 11.112497,6.0854166 c -0.29316,0 -0.52917,0.2360001 -0.52917,0.52916 0,0.2931599 0.23601,0.5291701 0.52917,0.5291701 h -0.52917 c -0.29315,0 -0.52916,-0.2360102 -0.52916,-0.5291701 0,-0.2931599 0.23601,-0.52916 0.52916,-0.52916 z"
       id="path936"
       inkscape:connector-curvature="0"
       sodipodi:nodetypes="ccccccc" />
    <path
       style="opacity:1;fill:#3588cb;fill-opacity:1;stroke:none;stroke-width:0.52916664;stroke-linecap:round;stroke-linejoin:round;stroke-miterlimit:4;stroke-dasharray:none;stroke-dashoffset:0;stroke-opacity:1"
       d="m 12.435417,7.1437467 v 3.1749993 h -0.52917 V 7.1437467 Z"
       id="path8636"
       inkscape:connector-curvature="0"
       sodipodi:nodetypes="ccccc" />
    <path
       inkscape:connector-curvature="0"
       style="opacity:1;fill:#3588cb;fill-opacity:1;stroke:none;stroke-width:0.52916664;stroke-linecap:square;stroke-linejoin:round;stroke-miterlimit:4;stroke-dasharray:none;stroke-dashoffset:0;stroke-opacity:1"
       d="m 9.260417,7.4083266 v 0.5291701 c 0,0.14658 -0.11801,0.2645799 -0.26459,0.2645799 h -5.55625 v 0.2645899 h 6.08542 c 0.14658,0 0.26458,-0.1180099 0.26458,-0.2645899 v -0.52916 c 0,-0.14658 -0.118,-0.26459 -0.26458,-0.26459 z"
       id="path8657"
       sodipodi:nodetypes="cccccccccc" />
    <path
       style="opacity:1;fill:#84b6e0;fill-opacity:1;stroke:none;stroke-width:0.52916664;stroke-linecap:butt;stroke-linejoin:round;stroke-miterlimit:4;stroke-dasharray:none;stroke-dashoffset:0;stroke-opacity:1"
       d="m 13.867367,0.5291667 c 1.10813,0 2.00763,0.90002 2.00763,2.00814 v 5.7732898 c 0,1.1081401 -0.8995,2.0076295 -2.00763,2.0076295 h 0.52917 c 1.10812,0 2.00763,-0.8994894 2.00763,-2.0076295 V 2.5373067 c 0,-1.10812 -0.89951,-2.00814 -2.00763,-2.00814 z"
       id="path931"
       inkscape:connector-curvature="0"
       sodipodi:nodetypes="ccccccccc" />
    <path
       style="opacity:1;fill:#84b6e0;fill-opacity:1;stroke:none;stroke-width:0.52916664;stroke-linecap:butt;stroke-linejoin:round;stroke-miterlimit:4;stroke-dasharray:none;stroke-dashoffset:0;stroke-opacity:1"
       d="m 5.837427,12.657626 c 0.0433,0.0275 0.0947,0.044 0.15297,0.0413 0.54561,-0.0277 1.07692,-0.1824 1.55181,-0.45476 0.75662,-0.43625 1.27958,-1.16432 1.54147,-1.92598 l -0.52916,4e-5 c -0.26189,0.76166 -0.78486,1.48973 -1.54148,1.92598 -0.36501,0.20922 -0.76337,0.34729 -1.17561,0.41342 z"
       id="path8667"
       inkscape:connector-curvature="0"
       sodipodi:nodetypes="ccccccc" />
    <path
       id="path8670"
       d="m 11.663617,13.415706 c -0.03622,-2.23e-4 -0.0721,0.007 -0.10542,0.0212 -0.73117,0.3149 -1.24023,1.04368 -1.24023,1.88878 v 0.32607 c 0,0.41261 0.34135,0.7519 0.75396,0.7519 h 3.25613 c 0.41261,0 0.75396,-0.33929 0.75396,-0.7519 v -0.32607 c 0,-0.84499 -0.50922,-1.57381 -1.24023,-1.88878 -0.03284,-0.014 -0.06817,-0.02121 -0.10387,-0.0212 h -0.0816 c -0.174309,0.37043 -0.546628,0.607105 -0.95602,0.60772 -0.409576,-4.18e-4 -0.782142,-0.237123 -0.95653,-0.60772 z"
       style="color:#000000;font-style:normal;font-variant:normal;font-weight:normal;font-stretch:normal;font-size:medium;line-height:normal;font-family:sans-serif;font-variant-ligatures:normal;font-variant-position:normal;font-variant-caps:normal;font-variant-numeric:normal;font-variant-alternates:normal;font-feature-settings:normal;text-indent:0;text-align:start;text-decoration:none;text-decoration-line:none;text-decoration-style:solid;text-decoration-color:#000000;letter-spacing:normal;word-spacing:normal;text-transform:none;writing-mode:lr-tb;direction:ltr;text-orientation:mixed;dominant-baseline:auto;baseline-shift:baseline;text-anchor:start;white-space:normal;shape-padding:0;clip-rule:nonzero;display:inline;overflow:visible;visibility:visible;opacity:1;isolation:auto;mix-blend-mode:normal;color-interpolation:sRGB;color-interpolation-filters:linearRGB;solid-color:#000000;solid-opacity:1;vector-effect:none;fill:#a4c9e8;fill-opacity:1;fill-rule:nonzero;stroke:none;stroke-width:0.5291667;stroke-linecap:round;stroke-linejoin:round;stroke-miterlimit:4;stroke-dasharray:none;stroke-dashoffset:0;stroke-opacity:1;color-rendering:auto;image-rendering:auto;shape-rendering:auto;text-rendering:auto;enable-background:accumulate"
       inkscape:connector-curvature="0"
       sodipodi:nodetypes="cccccccccccccc" />
    <path
       id="path8672"
       d="m 13.656267,13.415706 c -0.174309,0.37043 -0.546628,0.607105 -0.95602,0.60772 -0.112599,-3.64e-4 -0.224418,-0.01869 -0.33124,-0.0543 0.23958,0.205526 0.544753,0.318614 0.86041,0.31884 0.431562,-3.32e-4 0.835834,-0.211146 1.08314,-0.56482 -0.14286,-0.1149 -0.30007,-0.21274 -0.47077,-0.28629 -0.03284,-0.014 -0.06817,-0.02121 -0.10387,-0.0212 z"
       style="opacity:1;fill:#84b6e0;fill-opacity:1;stroke:none;stroke-width:0.52916664;stroke-linecap:round;stroke-linejoin:round;stroke-miterlimit:4;stroke-dasharray:none;stroke-dashoffset:0;stroke-opacity:1"
       inkscape:connector-curvature="0"
       sodipodi:nodetypes="cccccccc" />
    <path
       sodipodi:nodetypes="ccccccccccc"
       inkscape:connector-curvature="0"
       id="path8674"
       d="m 13.656267,13.415706 c -0.0256,0.0536 -0.0557,0.10494 -0.0899,0.15348 0.59212,0.36096 0.9865,1.01342 0.9865,1.75648 v 0.32608 c 0,0.41261 -0.34134,0.75189 -0.75396,0.75189 h 0.52917 c 0.41261,0 0.75396,-0.33928 0.75396,-0.75189 v -0.32608 c 0,-0.84498 -0.50922,-1.57381 -1.24023,-1.88877 -0.0328,-0.014 -0.0682,-0.0212 -0.10387,-0.0212 z"
       style="color:#000000;font-style:normal;font-variant:normal;font-weight:normal;font-stretch:normal;font-size:medium;line-height:normal;font-family:sans-serif;font-variant-ligatures:normal;font-variant-position:normal;font-variant-caps:normal;font-variant-numeric:normal;font-variant-alternates:normal;font-feature-settings:normal;text-indent:0;text-align:start;text-decoration:none;text-decoration-line:none;text-decoration-style:solid;text-decoration-color:#000000;letter-spacing:normal;word-spacing:normal;text-transform:none;writing-mode:lr-tb;direction:ltr;text-orientation:mixed;dominant-baseline:auto;baseline-shift:baseline;text-anchor:start;white-space:normal;shape-padding:0;clip-rule:nonzero;display:inline;overflow:visible;visibility:visible;opacity:1;isolation:auto;mix-blend-mode:normal;color-interpolation:sRGB;color-interpolation-filters:linearRGB;solid-color:#000000;solid-opacity:1;vector-effect:none;fill:#84b6e0;fill-opacity:1;fill-rule:nonzero;stroke:none;stroke-width:0.5291667;stroke-linecap:round;stroke-linejoin:round;stroke-miterlimit:4;stroke-dasharray:none;stroke-dashoffset:0;stroke-opacity:1;color-rendering:auto;image-rendering:auto;shape-rendering:auto;text-rendering:auto;enable-background:accumulate" />
    <path
       style="opacity:1;fill:#e4eff8;fill-opacity:1;stroke:none;stroke-width:0.52916664;stroke-linecap:round;stroke-linejoin:round;stroke-miterlimit:4;stroke-dasharray:none;stroke-dashoffset:0;stroke-opacity:1"
       d="m 14.023178,12.965082 c 0,0.730626 -0.59229,1.322916 -1.322916,1.322916 -0.730626,0 -1.322916,-0.59229 -1.322916,-1.322916 0,-0.730626 0.59229,-1.322916 1.322916,-1.322916 0.730626,0 1.322916,0.59229 1.322916,1.322916 z"
       id="ellipse8676"
       inkscape:connector-curvature="0"
       sodipodi:nodetypes="ccccc" />
    <path
       id="path8678"
       d="m 12.438247,11.669576 c 0.614666,0.126745 1.055685,0.667923 1.05575,1.29552 -5.62e-4,0.629183 -0.44419,1.170919 -1.06091,1.29553 0.08789,0.01817 0.177408,0.02735 0.26716,0.0274 0.730626,2e-6 1.322917,-0.592285 1.32292,-1.32291 2e-6,-0.730629 -0.592291,-1.322922 -1.32292,-1.32293 -0.08803,3.84e-4 -0.175796,0.0096 -0.262,0.02739 z"
       style="opacity:1;fill:#c4dcf0;fill-opacity:1;stroke:none;stroke-width:0.52916664;stroke-linecap:round;stroke-linejoin:round;stroke-miterlimit:4;stroke-dasharray:none;stroke-dashoffset:0;stroke-opacity:1"
       inkscape:connector-curvature="0"
       sodipodi:nodetypes="ccccccc" />
    <path
       style="color:#000000;font-style:normal;font-variant:normal;font-weight:normal;font-stretch:normal;font-size:medium;line-height:normal;font-family:sans-serif;font-variant-ligatures:normal;font-variant-position:normal;font-variant-caps:normal;font-variant-numeric:normal;font-variant-alternates:normal;font-feature-settings:normal;text-indent:0;text-align:start;text-decoration:none;text-decoration-line:none;text-decoration-style:solid;text-decoration-color:#000000;letter-spacing:normal;word-spacing:normal;text-transform:none;writing-mode:lr-tb;direction:ltr;text-orientation:mixed;dominant-baseline:auto;baseline-shift:baseline;text-anchor:start;white-space:normal;shape-padding:0;clip-rule:nonzero;display:inline;overflow:visible;visibility:visible;opacity:1;isolation:auto;mix-blend-mode:normal;color-interpolation:sRGB;color-interpolation-filters:linearRGB;solid-color:#000000;solid-opacity:1;vector-effect:none;fill:#a4c9e8;fill-opacity:1;fill-rule:nonzero;stroke:none;stroke-width:0.52916664;stroke-linecap:round;stroke-linejoin:miter;stroke-miterlimit:4;stroke-dasharray:none;stroke-dashoffset:0;stroke-opacity:1;color-rendering:auto;image-rendering:auto;shape-rendering:auto;text-rendering:auto;enable-background:accumulate"
       d="m 2.38125,14.022786 c -0.3528645,0 -0.3528645,0.529297 0,0.529297 h 0.5292969 c 0.3528645,0 0.3528645,-0.529297 0,-0.529297 z"
       id="path920"
       inkscape:connector-curvature="0"
       sodipodi:nodetypes="ccccc" />
    <path
       inkscape:connector-curvature="0"
       id="path924"
       d="m 3.9687499,14.022786 c -0.3528645,0 -0.3528645,0.529297 0,0.529297 h 0.5292969 c 0.3528645,0 0.3528645,-0.529297 0,-0.529297 z"
       style="color:#000000;font-style:normal;font-variant:normal;font-weight:normal;font-stretch:normal;font-size:medium;line-height:normal;font-family:sans-serif;font-variant-ligatures:normal;font-variant-position:normal;font-variant-caps:normal;font-variant-numeric:normal;font-variant-alternates:normal;font-feature-settings:normal;text-indent:0;text-align:start;text-decoration:none;text-decoration-line:none;text-decoration-style:solid;text-decoration-color:#000000;letter-spacing:normal;word-spacing:normal;text-transform:none;writing-mode:lr-tb;direction:ltr;text-orientation:mixed;dominant-baseline:auto;baseline-shift:baseline;text-anchor:start;white-space:normal;shape-padding:0;clip-rule:nonzero;display:inline;overflow:visible;visibility:visible;opacity:1;isolation:auto;mix-blend-mode:normal;color-interpolation:sRGB;color-interpolation-filters:linearRGB;solid-color:#000000;solid-opacity:1;vector-effect:none;fill:#a4c9e8;fill-opacity:1;fill-rule:nonzero;stroke:none;stroke-width:0.52916664;stroke-linecap:round;stroke-linejoin:miter;stroke-miterlimit:4;stroke-dasharray:none;stroke-dashoffset:0;stroke-opacity:1;color-rendering:auto;image-rendering:auto;shape-rendering:auto;text-rendering:auto;enable-background:accumulate"
       sodipodi:nodetypes="ccccc" />
    <path
       style="color:#000000;font-style:normal;font-variant:normal;font-weight:normal;font-stretch:normal;font-size:medium;line-height:normal;font-family:sans-serif;font-variant-ligatures:normal;font-variant-position:normal;font-variant-caps:normal;font-variant-numeric:normal;font-variant-alternates:normal;font-feature-settings:normal;text-indent:0;text-align:start;text-decoration:none;text-decoration-line:none;text-decoration-style:solid;text-decoration-color:#000000;letter-spacing:normal;word-spacing:normal;text-transform:none;writing-mode:lr-tb;direction:ltr;text-orientation:mixed;dominant-baseline:auto;baseline-shift:baseline;text-anchor:start;white-space:normal;shape-padding:0;clip-rule:nonzero;display:inline;overflow:visible;visibility:visible;opacity:1;isolation:auto;mix-blend-mode:normal;color-interpolation:sRGB;color-interpolation-filters:linearRGB;solid-color:#000000;solid-opacity:1;vector-effect:none;fill:#a4c9e8;fill-opacity:1;fill-rule:nonzero;stroke:none;stroke-width:0.52916664;stroke-linecap:round;stroke-linejoin:miter;stroke-miterlimit:4;stroke-dasharray:none;stroke-dashoffset:0;stroke-opacity:1;color-rendering:auto;image-rendering:auto;shape-rendering:auto;text-rendering:auto;enable-background:accumulate"
       d="m 5.5561196,14.022786 c -0.3528645,0 -0.3528645,0.529297 0,0.529297 h 0.5292969 c 0.3528645,0 0.3528645,-0.529297 0,-0.529297 z"
       id="path926"
       inkscape:connector-curvature="0"
       sodipodi:nodetypes="ccccc" />
  </g>
</svg>
